<svg xmlns="http://www.w3.org/2000/svg" width="280" height="240" viewBox="0 0 280 240">

<rect width="280" height="240" fill="#ffffff" rx="12"/>
<line x1="90" y1="50" x2="120" y2="70" stroke="#000" stroke-width="1.6" opacity="0.7"/>
<line x1="120" y1="70" x2="140" y2="90" stroke="#000" stroke-width="1.6" opacity="0.7"/>
<line x1="140" y1="90" x2="160" y2="110" stroke="#000" stroke-width="1.6" opacity="0.7"/>
<line x1="160" y1="110" x2="155" y2="140" stroke="#000" stroke-width="1.6" opacity="0.7"/>
<line x1="155" y1="140" x2="140" y2="165" stroke="#000" stroke-width="1.6" opacity="0.7"/>
<line x1="140" y1="165" x2="120" y2="175" stroke="#000" stroke-width="1.6" opacity="0.7"/>
<line x1="120" y1="175" x2="100" y2="165" stroke="#000" stroke-width="1.6" opacity="0.7"/>
<line x1="100" y1="165" x2="85" y2="145" stroke="#000" stroke-width="1.6" opacity="0.7"/>
<circle cx="90" cy="50" r="7" fill="#000" opacity="0.12"/>
<circle cx="90" cy="50" r="5" fill="#000"/>
<circle cx="120" cy="70" r="7" fill="#000" opacity="0.12"/>
<circle cx="120" cy="70" r="3" fill="#000"/>
<circle cx="140" cy="90" r="7" fill="#000" opacity="0.12"/>
<circle cx="140" cy="90" r="3" fill="#000"/>
<circle cx="160" cy="110" r="7" fill="#000" opacity="0.12"/>
<circle cx="160" cy="110" r="3" fill="#000"/>
<circle cx="155" cy="140" r="7" fill="#000" opacity="0.12"/>
<circle cx="155" cy="140" r="3" fill="#000"/>
<circle cx="140" cy="165" r="7" fill="#000" opacity="0.12"/>
<circle cx="140" cy="165" r="3" fill="#000"/>
<circle cx="120" cy="175" r="7" fill="#000" opacity="0.12"/>
<circle cx="120" cy="175" r="3" fill="#000"/>
<circle cx="100" cy="165" r="7" fill="#000" opacity="0.12"/>
<circle cx="100" cy="165" r="3" fill="#000"/>
<circle cx="85" cy="145" r="7" fill="#000" opacity="0.12"/>
<circle cx="85" cy="145" r="3" fill="#000"/>
<text x="14" y="228" font-size="17" font-weight="700" fill="#000000" font-family="sans-serif" letter-spacing="3">3 / 24</text>
</svg>