<svg xmlns="http://www.w3.org/2000/svg" width="280" height="240" viewBox="0 0 280 240">
<defs>
  <linearGradient id="bg" x1="0" y1="0" x2="0.6" y2="1">
    <stop offset="0%" stop-color="#0a0a2e"/>
    <stop offset="60%" stop-color="#050510"/>
    <stop offset="100%" stop-color="#0d0d1a"/>
  </linearGradient>
</defs>
<rect width="280" height="240" fill="url(#bg)" rx="12"/>
<circle cx="176.3" cy="15.5" r="0.9" fill="#fff" opacity="0.16"/>
<circle cx="68.0" cy="172.0" r="0.9" fill="#fff" opacity="0.28"/>
<circle cx="242.0" cy="29.1" r="0.9" fill="#fff" opacity="0.21"/>
<circle cx="17.7" cy="58.1" r="0.9" fill="#fff" opacity="0.23"/>
<circle cx="16.9" cy="53.7" r="0.9" fill="#fff" opacity="0.27"/>
<circle cx="151.7" cy="58.5" r="0.9" fill="#fff" opacity="0.26"/>
<circle cx="220.5" cy="11.4" r="0.9" fill="#fff" opacity="0.32"/>
<circle cx="191.5" cy="84.9" r="0.9" fill="#fff" opacity="0.13"/>
<circle cx="258.9" cy="84.1" r="0.9" fill="#fff" opacity="0.11"/>
<circle cx="35.1" cy="196.4" r="0.9" fill="#fff" opacity="0.26"/>
<circle cx="219.9" cy="170.5" r="0.9" fill="#fff" opacity="0.24"/>
<circle cx="263.0" cy="93.3" r="0.9" fill="#fff" opacity="0.25"/>
<circle cx="225.6" cy="146.1" r="0.9" fill="#fff" opacity="0.34"/>
<circle cx="160.1" cy="165.0" r="0.9" fill="#fff" opacity="0.09"/>
<circle cx="69.3" cy="73.7" r="0.9" fill="#fff" opacity="0.1"/>
<circle cx="70.5" cy="32.2" r="0.9" fill="#fff" opacity="0.16"/>
<circle cx="175.3" cy="90.3" r="0.9" fill="#fff" opacity="0.19"/>
<circle cx="64.5" cy="68.7" r="0.9" fill="#fff" opacity="0.36"/>
<circle cx="178.5" cy="144.0" r="0.9" fill="#fff" opacity="0.13"/>
<circle cx="199.6" cy="45.9" r="0.9" fill="#fff" opacity="0.19"/>
<circle cx="267.3" cy="150.8" r="0.9" fill="#fff" opacity="0.25"/>
<circle cx="188.0" cy="195.4" r="0.9" fill="#fff" opacity="0.31"/>
<circle cx="69.6" cy="17.1" r="0.9" fill="#fff" opacity="0.17"/>
<circle cx="79.6" cy="56.4" r="0.9" fill="#fff" opacity="0.36"/>
<circle cx="237.9" cy="79.2" r="0.9" fill="#fff" opacity="0.28"/>
<circle cx="112.9" cy="211.2" r="0.9" fill="#fff" opacity="0.22"/>
<circle cx="78.9" cy="64.3" r="0.9" fill="#fff" opacity="0.25"/>
<circle cx="78.3" cy="138.6" r="0.9" fill="#fff" opacity="0.35"/>
<circle cx="113.8" cy="58.3" r="0.9" fill="#fff" opacity="0.38"/>
<circle cx="142.5" cy="30.0" r="0.9" fill="#fff" opacity="0.09"/>
<circle cx="38.5" cy="148.0" r="0.9" fill="#fff" opacity="0.32"/>
<circle cx="119.8" cy="24.0" r="0.9" fill="#fff" opacity="0.19"/>
<circle cx="269.0" cy="126.4" r="0.9" fill="#fff" opacity="0.37"/>
<circle cx="233.8" cy="12.5" r="0.9" fill="#fff" opacity="0.3"/>
<circle cx="187.2" cy="128.1" r="0.9" fill="#fff" opacity="0.16"/>
<circle cx="176.7" cy="34.5" r="0.9" fill="#fff" opacity="0.21"/>
<circle cx="128.0" cy="219.8" r="0.9" fill="#fff" opacity="0.34"/>
<circle cx="78.5" cy="120.1" r="0.9" fill="#fff" opacity="0.13"/>
<circle cx="247.3" cy="201.5" r="0.9" fill="#fff" opacity="0.17"/>
<circle cx="176.1" cy="144.0" r="0.9" fill="#fff" opacity="0.13"/>
<circle cx="208.3" cy="128.7" r="0.9" fill="#fff" opacity="0.31"/>
<circle cx="147.9" cy="10.1" r="0.9" fill="#fff" opacity="0.18"/>
<circle cx="15.1" cy="214.4" r="0.9" fill="#fff" opacity="0.34"/>
<circle cx="226.2" cy="77.7" r="0.9" fill="#fff" opacity="0.1"/>
<circle cx="238.3" cy="218.3" r="0.9" fill="#fff" opacity="0.11"/>
<line x1="80" y1="80" x2="110" y2="60" stroke="#fff" stroke-width="1.6" opacity="0.7"/>
<line x1="110" y1="60" x2="140" y2="75" stroke="#fff" stroke-width="1.6" opacity="0.7"/>
<line x1="140" y1="75" x2="130" y2="110" stroke="#fff" stroke-width="1.6" opacity="0.7"/>
<line x1="130" y1="110" x2="160" y2="100" stroke="#fff" stroke-width="1.6" opacity="0.7"/>
<line x1="160" y1="100" x2="170" y2="130" stroke="#fff" stroke-width="1.6" opacity="0.7"/>
<line x1="130" y1="110" x2="100" y2="130" stroke="#fff" stroke-width="1.6" opacity="0.7"/>
<line x1="100" y1="130" x2="80" y2="155" stroke="#fff" stroke-width="1.6" opacity="0.7"/>
<line x1="80" y1="80" x2="100" y2="130" stroke="#fff" stroke-width="1.6" opacity="0.7"/>
<line x1="80" y1="80" x2="60" y2="110" stroke="#fff" stroke-width="1.6" opacity="0.7"/>
<line x1="160" y1="100" x2="190" y2="80" stroke="#fff" stroke-width="1.6" opacity="0.7"/>
<circle cx="80" cy="80" r="7" fill="#fff" opacity="0.12"/>
<circle cx="80" cy="80" r="5" fill="#fff"/>
<circle cx="110" cy="60" r="7" fill="#fff" opacity="0.12"/>
<circle cx="110" cy="60" r="3" fill="#fff"/>
<circle cx="140" cy="75" r="7" fill="#fff" opacity="0.12"/>
<circle cx="140" cy="75" r="3" fill="#fff"/>
<circle cx="130" cy="110" r="7" fill="#fff" opacity="0.12"/>
<circle cx="130" cy="110" r="3" fill="#fff"/>
<circle cx="160" cy="100" r="7" fill="#fff" opacity="0.12"/>
<circle cx="160" cy="100" r="3" fill="#fff"/>
<circle cx="170" cy="130" r="7" fill="#fff" opacity="0.12"/>
<circle cx="170" cy="130" r="3" fill="#fff"/>
<circle cx="100" cy="130" r="7" fill="#fff" opacity="0.12"/>
<circle cx="100" cy="130" r="3" fill="#fff"/>
<circle cx="80" cy="155" r="7" fill="#fff" opacity="0.12"/>
<circle cx="80" cy="155" r="3" fill="#fff"/>
<circle cx="60" cy="110" r="7" fill="#fff" opacity="0.12"/>
<circle cx="60" cy="110" r="3" fill="#fff"/>
<circle cx="190" cy="80" r="7" fill="#fff" opacity="0.12"/>
<circle cx="190" cy="80" r="3" fill="#fff"/>
<circle cx="100" cy="70" r="7" fill="#fff" opacity="0.12"/>
<circle cx="100" cy="70" r="5" fill="#fff"/>
<circle cx="160" cy="70" r="7" fill="#fff" opacity="0.12"/>
<circle cx="160" cy="70" r="3" fill="#fff"/>
<circle cx="90" cy="130" r="7" fill="#fff" opacity="0.12"/>
<circle cx="90" cy="130" r="3" fill="#fff"/>
<circle cx="170" cy="130" r="7" fill="#fff" opacity="0.12"/>
<circle cx="170" cy="130" r="3" fill="#fff"/>
<circle cx="130" cy="100" r="7" fill="#fff" opacity="0.12"/>
<circle cx="130" cy="100" r="3" fill="#fff"/>
<line x1="100" y1="80" x2="130" y2="110" stroke="#fff" stroke-width="1.6" opacity="0.7"/>
<line x1="160" y1="80" x2="130" y2="110" stroke="#fff" stroke-width="1.6" opacity="0.7"/>
<line x1="100" y1="80" x2="80" y2="140" stroke="#fff" stroke-width="1.6" opacity="0.7"/>
<line x1="160" y1="80" x2="180" y2="140" stroke="#fff" stroke-width="1.6" opacity="0.7"/>
<line x1="80" y1="140" x2="130" y2="110" stroke="#fff" stroke-width="1.6" opacity="0.7"/>
<line x1="180" y1="140" x2="130" y2="110" stroke="#fff" stroke-width="1.6" opacity="0.7"/>
<circle cx="100" cy="80" r="7" fill="#fff" opacity="0.12"/>
<circle cx="100" cy="80" r="5" fill="#fff"/>
<circle cx="160" cy="80" r="7" fill="#fff" opacity="0.12"/>
<circle cx="160" cy="80" r="3" fill="#fff"/>
<circle cx="80" cy="140" r="7" fill="#fff" opacity="0.12"/>
<circle cx="80" cy="140" r="3" fill="#fff"/>
<circle cx="180" cy="140" r="7" fill="#fff" opacity="0.12"/>
<circle cx="180" cy="140" r="3" fill="#fff"/>
<circle cx="130" cy="110" r="7" fill="#fff" opacity="0.12"/>
<circle cx="130" cy="110" r="3" fill="#fff"/>
<line x1="80" y1="80" x2="120" y2="60" stroke="#fff" stroke-width="1.6" opacity="0.7"/>
<line x1="120" y1="60" x2="160" y2="75" stroke="#fff" stroke-width="1.6" opacity="0.7"/>
<line x1="160" y1="75" x2="175" y2="110" stroke="#fff" stroke-width="1.6" opacity="0.7"/>
<line x1="175" y1="110" x2="155" y2="145" stroke="#fff" stroke-width="1.6" opacity="0.7"/>
<line x1="155" y1="145" x2="120" y2="155" stroke="#fff" stroke-width="1.6" opacity="0.7"/>
<line x1="120" y1="155" x2="85" y2="140" stroke="#fff" stroke-width="1.6" opacity="0.7"/>
<line x1="85" y1="140" x2="70" y2="110" stroke="#fff" stroke-width="1.6" opacity="0.7"/>
<line x1="70" y1="110" x2="80" y2="80" stroke="#fff" stroke-width="1.6" opacity="0.7"/>
<line x1="80" y1="80" x2="85" y2="140" stroke="#fff" stroke-width="1.6" opacity="0.7"/>
<circle cx="80" cy="80" r="7" fill="#fff" opacity="0.12"/>
<circle cx="80" cy="80" r="5" fill="#fff"/>
<circle cx="120" cy="60" r="7" fill="#fff" opacity="0.12"/>
<circle cx="120" cy="60" r="3" fill="#fff"/>
<circle cx="160" cy="75" r="7" fill="#fff" opacity="0.12"/>
<circle cx="160" cy="75" r="3" fill="#fff"/>
<circle cx="175" cy="110" r="7" fill="#fff" opacity="0.12"/>
<circle cx="175" cy="110" r="3" fill="#fff"/>
<circle cx="155" cy="145" r="7" fill="#fff" opacity="0.12"/>
<circle cx="155" cy="145" r="3" fill="#fff"/>
<circle cx="120" cy="155" r="7" fill="#fff" opacity="0.12"/>
<circle cx="120" cy="155" r="3" fill="#fff"/>
<circle cx="85" cy="140" r="7" fill="#fff" opacity="0.12"/>
<circle cx="85" cy="140" r="3" fill="#fff"/>
<circle cx="70" cy="110" r="7" fill="#fff" opacity="0.12"/>
<circle cx="70" cy="110" r="3" fill="#fff"/>
</svg>