<svg xmlns="http://www.w3.org/2000/svg" width="280" height="240" viewBox="0 0 280 240">

<rect width="280" height="240" fill="#ffffff" rx="12"/>
<line x1="80" y1="80" x2="110" y2="60" stroke="#000" stroke-width="1.6" opacity="0.7"/>
<line x1="110" y1="60" x2="140" y2="75" stroke="#000" stroke-width="1.6" opacity="0.7"/>
<line x1="140" y1="75" x2="130" y2="110" stroke="#000" stroke-width="1.6" opacity="0.7"/>
<line x1="130" y1="110" x2="160" y2="100" stroke="#000" stroke-width="1.6" opacity="0.7"/>
<line x1="160" y1="100" x2="170" y2="130" stroke="#000" stroke-width="1.6" opacity="0.7"/>
<line x1="130" y1="110" x2="100" y2="130" stroke="#000" stroke-width="1.6" opacity="0.7"/>
<line x1="100" y1="130" x2="80" y2="155" stroke="#000" stroke-width="1.6" opacity="0.7"/>
<line x1="80" y1="80" x2="100" y2="130" stroke="#000" stroke-width="1.6" opacity="0.7"/>
<line x1="80" y1="80" x2="60" y2="110" stroke="#000" stroke-width="1.6" opacity="0.7"/>
<line x1="160" y1="100" x2="190" y2="80" stroke="#000" stroke-width="1.6" opacity="0.7"/>
<circle cx="80" cy="80" r="7" fill="#000" opacity="0.12"/>
<circle cx="80" cy="80" r="5" fill="#000"/>
<circle cx="110" cy="60" r="7" fill="#000" opacity="0.12"/>
<circle cx="110" cy="60" r="3" fill="#000"/>
<circle cx="140" cy="75" r="7" fill="#000" opacity="0.12"/>
<circle cx="140" cy="75" r="3" fill="#000"/>
<circle cx="130" cy="110" r="7" fill="#000" opacity="0.12"/>
<circle cx="130" cy="110" r="3" fill="#000"/>
<circle cx="160" cy="100" r="7" fill="#000" opacity="0.12"/>
<circle cx="160" cy="100" r="3" fill="#000"/>
<circle cx="170" cy="130" r="7" fill="#000" opacity="0.12"/>
<circle cx="170" cy="130" r="3" fill="#000"/>
<circle cx="100" cy="130" r="7" fill="#000" opacity="0.12"/>
<circle cx="100" cy="130" r="3" fill="#000"/>
<circle cx="80" cy="155" r="7" fill="#000" opacity="0.12"/>
<circle cx="80" cy="155" r="3" fill="#000"/>
<circle cx="60" cy="110" r="7" fill="#000" opacity="0.12"/>
<circle cx="60" cy="110" r="3" fill="#000"/>
<circle cx="190" cy="80" r="7" fill="#000" opacity="0.12"/>
<circle cx="190" cy="80" r="3" fill="#000"/>
<circle cx="100" cy="70" r="7" fill="#000" opacity="0.12"/>
<circle cx="100" cy="70" r="5" fill="#000"/>
<circle cx="160" cy="70" r="7" fill="#000" opacity="0.12"/>
<circle cx="160" cy="70" r="3" fill="#000"/>
<circle cx="90" cy="130" r="7" fill="#000" opacity="0.12"/>
<circle cx="90" cy="130" r="3" fill="#000"/>
<circle cx="170" cy="130" r="7" fill="#000" opacity="0.12"/>
<circle cx="170" cy="130" r="3" fill="#000"/>
<circle cx="130" cy="100" r="7" fill="#000" opacity="0.12"/>
<circle cx="130" cy="100" r="3" fill="#000"/>
<line x1="100" y1="80" x2="130" y2="110" stroke="#000" stroke-width="1.6" opacity="0.7"/>
<line x1="160" y1="80" x2="130" y2="110" stroke="#000" stroke-width="1.6" opacity="0.7"/>
<line x1="100" y1="80" x2="80" y2="140" stroke="#000" stroke-width="1.6" opacity="0.7"/>
<line x1="160" y1="80" x2="180" y2="140" stroke="#000" stroke-width="1.6" opacity="0.7"/>
<line x1="80" y1="140" x2="130" y2="110" stroke="#000" stroke-width="1.6" opacity="0.7"/>
<line x1="180" y1="140" x2="130" y2="110" stroke="#000" stroke-width="1.6" opacity="0.7"/>
<circle cx="100" cy="80" r="7" fill="#000" opacity="0.12"/>
<circle cx="100" cy="80" r="5" fill="#000"/>
<circle cx="160" cy="80" r="7" fill="#000" opacity="0.12"/>
<circle cx="160" cy="80" r="3" fill="#000"/>
<circle cx="80" cy="140" r="7" fill="#000" opacity="0.12"/>
<circle cx="80" cy="140" r="3" fill="#000"/>
<circle cx="180" cy="140" r="7" fill="#000" opacity="0.12"/>
<circle cx="180" cy="140" r="3" fill="#000"/>
<circle cx="130" cy="110" r="7" fill="#000" opacity="0.12"/>
<circle cx="130" cy="110" r="3" fill="#000"/>
<line x1="80" y1="80" x2="120" y2="60" stroke="#000" stroke-width="1.6" opacity="0.7"/>
<line x1="120" y1="60" x2="160" y2="75" stroke="#000" stroke-width="1.6" opacity="0.7"/>
<line x1="160" y1="75" x2="175" y2="110" stroke="#000" stroke-width="1.6" opacity="0.7"/>
<line x1="175" y1="110" x2="155" y2="145" stroke="#000" stroke-width="1.6" opacity="0.7"/>
<line x1="155" y1="145" x2="120" y2="155" stroke="#000" stroke-width="1.6" opacity="0.7"/>
<line x1="120" y1="155" x2="85" y2="140" stroke="#000" stroke-width="1.6" opacity="0.7"/>
<line x1="85" y1="140" x2="70" y2="110" stroke="#000" stroke-width="1.6" opacity="0.7"/>
<line x1="70" y1="110" x2="80" y2="80" stroke="#000" stroke-width="1.6" opacity="0.7"/>
<line x1="80" y1="80" x2="85" y2="140" stroke="#000" stroke-width="1.6" opacity="0.7"/>
<circle cx="80" cy="80" r="7" fill="#000" opacity="0.12"/>
<circle cx="80" cy="80" r="5" fill="#000"/>
<circle cx="120" cy="60" r="7" fill="#000" opacity="0.12"/>
<circle cx="120" cy="60" r="3" fill="#000"/>
<circle cx="160" cy="75" r="7" fill="#000" opacity="0.12"/>
<circle cx="160" cy="75" r="3" fill="#000"/>
<circle cx="175" cy="110" r="7" fill="#000" opacity="0.12"/>
<circle cx="175" cy="110" r="3" fill="#000"/>
<circle cx="155" cy="145" r="7" fill="#000" opacity="0.12"/>
<circle cx="155" cy="145" r="3" fill="#000"/>
<circle cx="120" cy="155" r="7" fill="#000" opacity="0.12"/>
<circle cx="120" cy="155" r="3" fill="#000"/>
<circle cx="85" cy="140" r="7" fill="#000" opacity="0.12"/>
<circle cx="85" cy="140" r="3" fill="#000"/>
<circle cx="70" cy="110" r="7" fill="#000" opacity="0.12"/>
<circle cx="70" cy="110" r="3" fill="#000"/>
</svg>