<svg width="520" height="520" viewBox="0 0 520 520" xmlns="http://www.w3.org/2000/svg">
  <path d="M40,140 L40,90 Q40,75 55,75 L210,75 Q228,75 238,92 L268,140 Z" fill="#1a1a1a"/>
  <path d="M268,140 L480,140 Q500,140 500,160 L500,450 Q500,468 480,468 L40,468 Q20,468 20,450 L20,160 Q20,140 40,140 Z" fill="#1a1a1a"/>
  <path d="M20,190 L500,190 L500,450 Q500,468 480,468 L40,468 Q20,468 20,450 Z" fill="#1a1a1a"/>
  <path d="M40,140 L268,140 L238,92 Q228,75 210,75 L55,75 Q40,75 40,90 Z" fill="#2e4a7a"/>
  <line x1="500" y1="145" x2="500" y2="462" stroke="#3a8aaa" stroke-width="3.5" stroke-linecap="round"/>
  <line x1="55" y1="448" x2="465" y2="448" stroke="#3a8aaa" stroke-width="3.5" stroke-linecap="round"/>
</svg>
