<svg xmlns="http://www.w3.org/2000/svg" width="280" height="260" viewBox="400 260 280 260">
  <rect x="400" y="260" width="280" height="260" fill="white"/>
  <defs>
    <clipPath id="clip">
      <rect x="400" y="260" width="280" height="260"/>
    </clipPath>
  </defs>
  <g clip-path="url(#clip)">

  <circle cx="490" cy="50" r="22" fill="#b0b0b0" stroke="#888" stroke-width="2.5"/>
  <circle cx="95" cy="235" r="22" fill="#f5c842" stroke="#c4922a" stroke-width="2.5"/>
  <circle cx="95" cy="235" r="28" fill="none" stroke="#f5c842" stroke-width="1.5" opacity="0.6"/>
  <circle cx="95" cy="315" r="22" fill="#b0b0b0" stroke="#888" stroke-width="2.5"/>
  <circle cx="350" cy="420" r="22" fill="#f5c842" stroke="#c4922a" stroke-width="2.5"/>
  <circle cx="350" cy="420" r="28" fill="none" stroke="#f5c842" stroke-width="1.5" opacity="0.6"/>
  <circle cx="570" cy="295" r="22" fill="#f5c842" stroke="#c4922a" stroke-width="2.5"/>
  <circle cx="570" cy="295" r="28" fill="none" stroke="#f5c842" stroke-width="1.5" opacity="0.6"/>
  <circle cx="430" cy="420" r="22" fill="#f5c842" stroke="#c4922a" stroke-width="2.5"/>
  <circle cx="430" cy="420" r="28" fill="none" stroke="#f5c842" stroke-width="1.5" opacity="0.6"/>
  <rect x="215" y="175" width="300" height="75" rx="4" fill="none" stroke="#333" stroke-width="2"/>
  <rect x="128" y="120" width="45" height="45" rx="3" fill="none" stroke="#333" stroke-width="2"/>
  <rect x="229" y="190" width="45" height="45" rx="3" fill="none" stroke="#333" stroke-width="2"/>
  <rect x="284" y="190" width="45" height="45" rx="3" fill="none" stroke="#333" stroke-width="2"/>
  <rect x="339" y="190" width="45" height="45" rx="3" fill="none" stroke="#333" stroke-width="2"/>
  <rect x="394" y="190" width="45" height="45" rx="3" fill="none" stroke="#333" stroke-width="2"/>
  <rect x="449" y="190" width="45" height="45" rx="3" fill="none" stroke="#333" stroke-width="2"/>
  <polyline points="128,142 95,142 95,213" fill="none" stroke="#333" stroke-width="2"/>
  <polyline points="229,212 170,212 170,315 123,315" fill="none" stroke="#333" stroke-width="2"/>
  <polyline points="306,190 306,100 490,100 490,72" fill="none" stroke="#333" stroke-width="2"/>
  <polyline points="361,235 361,270 270,270 270,470 350,470 350,442" fill="none" stroke="#333" stroke-width="2"/>
  <polyline points="416,235 416,357 570,357 570,317" fill="none" stroke="#333" stroke-width="2"/>
  <polyline points="471,190 471,150 620,150 620,420 452,420" fill="none" stroke="#333" stroke-width="2"/>
  <text x="150" y="143" text-anchor="middle" dominant-baseline="central" font-size="13" font-weight="bold" font-family="Courier New" fill="#999">0</text>
  <text x="251" y="213" text-anchor="middle" dominant-baseline="central" font-size="13" font-weight="bold" font-family="Courier New" fill="#999">0</text>
  <text x="306" y="213" text-anchor="middle" dominant-baseline="central" font-size="13" font-weight="bold" font-family="Courier New" fill="#999">0</text>
  <text x="361" y="213" text-anchor="middle" dominant-baseline="central" font-size="13" font-weight="bold" font-family="Courier New" fill="#999">0</text>
  <text x="416" y="213" text-anchor="middle" dominant-baseline="central" font-size="13" font-weight="bold" font-family="Courier New" fill="#999">0</text>
  <text x="471" y="213" text-anchor="middle" dominant-baseline="central" font-size="13" font-weight="bold" font-family="Courier New" fill="#999">0</text>

  </g>
</svg>