<svg xmlns="http://www.w3.org/2000/svg" width="280" height="240" viewBox="0 0 280 240">

<rect width="280" height="240" fill="#ffffff" rx="12"/>
<line x1="80" y1="100" x2="110" y2="70" stroke="#000" stroke-width="1.6" opacity="0.7"/>
<line x1="110" y1="70" x2="140" y2="60" stroke="#000" stroke-width="1.6" opacity="0.7"/>
<line x1="140" y1="60" x2="165" y2="80" stroke="#000" stroke-width="1.6" opacity="0.7"/>
<line x1="165" y1="80" x2="170" y2="110" stroke="#000" stroke-width="1.6" opacity="0.7"/>
<line x1="170" y1="110" x2="145" y2="140" stroke="#000" stroke-width="1.6" opacity="0.7"/>
<line x1="145" y1="140" x2="110" y2="145" stroke="#000" stroke-width="1.6" opacity="0.7"/>
<line x1="110" y1="145" x2="85" y2="130" stroke="#000" stroke-width="1.6" opacity="0.7"/>
<line x1="85" y1="130" x2="80" y2="100" stroke="#000" stroke-width="1.6" opacity="0.7"/>
<line x1="110" y1="70" x2="85" y2="130" stroke="#000" stroke-width="1.6" opacity="0.7"/>
<line x1="140" y1="60" x2="145" y2="140" stroke="#000" stroke-width="1.6" opacity="0.7"/>
<line x1="80" y1="100" x2="55" y2="120" stroke="#000" stroke-width="1.6" opacity="0.7"/>
<line x1="170" y1="110" x2="195" y2="90" stroke="#000" stroke-width="1.6" opacity="0.7"/>
<line x1="145" y1="140" x2="155" y2="175" stroke="#000" stroke-width="1.6" opacity="0.7"/>
<circle cx="80" cy="100" r="7" fill="#000" opacity="0.12"/>
<circle cx="80" cy="100" r="5" fill="#000"/>
<circle cx="110" cy="70" r="7" fill="#000" opacity="0.12"/>
<circle cx="110" cy="70" r="3" fill="#000"/>
<circle cx="140" cy="60" r="7" fill="#000" opacity="0.12"/>
<circle cx="140" cy="60" r="3" fill="#000"/>
<circle cx="165" cy="80" r="7" fill="#000" opacity="0.12"/>
<circle cx="165" cy="80" r="3" fill="#000"/>
<circle cx="170" cy="110" r="7" fill="#000" opacity="0.12"/>
<circle cx="170" cy="110" r="3" fill="#000"/>
<circle cx="145" cy="140" r="7" fill="#000" opacity="0.12"/>
<circle cx="145" cy="140" r="3" fill="#000"/>
<circle cx="110" cy="145" r="7" fill="#000" opacity="0.12"/>
<circle cx="110" cy="145" r="3" fill="#000"/>
<circle cx="85" cy="130" r="7" fill="#000" opacity="0.12"/>
<circle cx="85" cy="130" r="3" fill="#000"/>
<circle cx="55" cy="120" r="7" fill="#000" opacity="0.12"/>
<circle cx="55" cy="120" r="3" fill="#000"/>
<circle cx="195" cy="90" r="7" fill="#000" opacity="0.12"/>
<circle cx="195" cy="90" r="3" fill="#000"/>
<circle cx="155" cy="175" r="7" fill="#000" opacity="0.12"/>
<circle cx="155" cy="175" r="3" fill="#000"/>
<text x="14" y="228" font-size="17" font-weight="700" fill="#000000" font-family="sans-serif" letter-spacing="3">3 / 27</text>
</svg>