<svg xmlns="http://www.w3.org/2000/svg" width="280" height="240" viewBox="0 0 280 240">

<rect width="280" height="240" fill="#ffffff" rx="12"/>
<line x1="100" y1="80" x2="130" y2="110" stroke="#000" stroke-width="1.6" opacity="0.7"/>
<line x1="160" y1="80" x2="130" y2="110" stroke="#000" stroke-width="1.6" opacity="0.7"/>
<line x1="100" y1="80" x2="80" y2="140" stroke="#000" stroke-width="1.6" opacity="0.7"/>
<line x1="160" y1="80" x2="180" y2="140" stroke="#000" stroke-width="1.6" opacity="0.7"/>
<line x1="80" y1="140" x2="130" y2="110" stroke="#000" stroke-width="1.6" opacity="0.7"/>
<line x1="180" y1="140" x2="130" y2="110" stroke="#000" stroke-width="1.6" opacity="0.7"/>
<circle cx="100" cy="80" r="7" fill="#000" opacity="0.12"/>
<circle cx="100" cy="80" r="5" fill="#000"/>
<circle cx="160" cy="80" r="7" fill="#000" opacity="0.12"/>
<circle cx="160" cy="80" r="3" fill="#000"/>
<circle cx="80" cy="140" r="7" fill="#000" opacity="0.12"/>
<circle cx="80" cy="140" r="3" fill="#000"/>
<circle cx="180" cy="140" r="7" fill="#000" opacity="0.12"/>
<circle cx="180" cy="140" r="3" fill="#000"/>
<circle cx="130" cy="110" r="7" fill="#000" opacity="0.12"/>
<circle cx="130" cy="110" r="3" fill="#000"/>
<text x="14" y="228" font-size="17" font-weight="700" fill="#000000" font-family="sans-serif" letter-spacing="3">3 / 21</text>
</svg>